<?xml version="1.0" encoding="UTF-8" standalone="no"?>
<!DOCTYPE svg PUBLIC "-//W3C//DTD SVG 20010904//EN"
              "http://www.w3.org/TR/2001/REC-SVG-20010904/DTD/svg10.dtd">

<svg xmlns="http://www.w3.org/2000/svg"
     width="20mm"
     viewBox="0 0 4096 4096">
  <path class="icon_svg"
        d="M 1759.00,164.11
           C 1732.84,168.16 1716.76,171.43 1693.00,184.31
             1652.14,206.46 1623.67,245.88 1613.58,291.00
             1611.97,298.16 1610.09,308.75 1610.00,316.00
             1610.00,316.00 1606.16,356.00 1606.16,356.00
             1606.16,356.00 1598.16,425.00 1598.16,425.00
             1598.16,425.00 1574.15,633.00 1574.15,633.00
             1574.15,633.00 1565.15,711.00 1565.15,711.00
             1565.15,711.00 1563.00,730.00 1563.00,730.00
             1562.67,733.76 1562.37,738.87 1559.69,741.73
             1556.73,744.88 1540.00,750.80 1535.00,752.80
             1535.00,752.80 1480.00,775.86 1480.00,775.86
             1441.88,792.83 1404.43,811.52 1368.00,831.86
             1368.00,831.86 1317.00,862.00 1317.00,862.00
             1281.86,883.13 1234.15,915.58 1202.00,940.79
             1202.00,940.79 1172.00,964.20 1172.00,964.20
             1168.46,967.03 1162.67,972.75 1158.00,972.54
             1155.38,972.42 1150.57,970.09 1148.00,969.00
             1148.00,969.00 1128.00,960.28 1128.00,960.28
             1128.00,960.28 1059.00,930.42 1059.00,930.42
             1059.00,930.42 825.00,829.15 825.00,829.15
             825.00,829.15 780.00,809.69 780.00,809.69
             780.00,809.69 760.00,799.86 760.00,799.86
             743.36,792.50 718.22,786.22 700.00,786.00
             646.29,785.38 594.25,809.60 563.04,854.00
             563.04,854.00 540.99,891.00 540.99,891.00
             540.99,891.00 489.58,980.00 489.58,980.00
             489.58,980.00 341.15,1237.00 341.15,1237.00
             341.15,1237.00 298.40,1311.00 298.40,1311.00
             284.27,1334.83 270.09,1357.13 262.43,1384.00
             257.06,1402.82 256.78,1416.77 257.00,1436.00
             257.00,1436.00 258.92,1453.00 258.92,1453.00
             264.98,1489.65 283.41,1523.00 311.00,1547.83
             319.41,1555.40 328.84,1560.95 338.00,1567.42
             338.00,1567.42 365.00,1587.37 365.00,1587.37
             365.00,1587.37 581.00,1747.63 581.00,1747.63
             581.00,1747.63 644.00,1794.37 644.00,1794.37
             644.00,1794.37 662.00,1807.87 662.00,1807.87
             664.73,1809.92 669.61,1813.30 671.27,1816.04
             674.08,1820.11 671.79,1828.27 671.27,1833.00
             671.27,1833.00 665.28,1874.00 665.28,1874.00
             661.23,1904.77 658.31,1936.03 656.96,1967.00
             656.96,1967.00 656.00,1979.00 656.00,1979.00
             656.00,1979.00 656.00,1984.00 656.00,1984.00
             656.00,1984.00 655.00,2001.00 655.00,2001.00
             655.00,2001.00 655.00,2026.00 655.00,2026.00
             655.00,2026.00 654.00,2041.00 654.00,2041.00
             654.00,2041.00 654.00,2066.00 654.00,2066.00
             654.00,2066.00 654.96,2078.00 654.96,2078.00
             654.96,2078.00 654.96,2094.00 654.96,2094.00
             654.96,2094.00 656.00,2116.00 656.00,2116.00
             656.00,2116.00 657.00,2130.00 657.00,2130.00
             657.00,2130.00 657.91,2145.00 657.91,2145.00
             657.91,2145.00 664.16,2214.00 664.16,2214.00
             664.16,2214.00 670.75,2262.00 670.75,2262.00
             671.53,2266.73 674.15,2276.91 671.40,2280.83
             669.47,2283.57 651.07,2296.83 647.00,2299.87
             647.00,2299.87 591.00,2341.37 591.00,2341.37
             591.00,2341.37 384.00,2495.13 384.00,2495.13
             384.00,2495.13 339.00,2528.56 339.00,2528.56
             325.93,2537.73 315.78,2543.23 304.00,2555.00
             277.61,2581.40 257.06,2625.25 257.00,2663.00
             257.00,2663.00 257.00,2679.00 257.00,2679.00
             257.00,2679.00 258.92,2696.00 258.92,2696.00
             264.36,2728.94 276.50,2747.93 292.99,2776.00
             292.99,2776.00 338.58,2855.00 338.58,2855.00
             338.58,2855.00 446.58,3042.00 446.58,3042.00
             446.58,3042.00 516.99,3164.00 516.99,3164.00
             532.88,3191.05 556.55,3237.28 576.17,3259.00
             601.45,3286.99 648.87,3309.94 687.00,3310.00
             687.00,3310.00 705.00,3310.00 705.00,3310.00
             721.69,3309.80 745.72,3302.89 761.00,3296.14
             761.00,3296.14 781.00,3286.31 781.00,3286.31
             781.00,3286.31 827.00,3266.42 827.00,3266.42
             827.00,3266.42 1058.00,3166.58 1058.00,3166.58
             1058.00,3166.58 1127.00,3136.72 1127.00,3136.72
             1127.00,3136.72 1147.00,3128.00 1147.00,3128.00
             1150.02,3126.71 1154.79,3124.34 1158.00,3124.29
             1162.19,3124.23 1165.82,3127.47 1169.00,3129.88
             1169.00,3129.88 1189.00,3145.58 1189.00,3145.58
             1214.36,3165.37 1240.32,3184.35 1267.00,3202.33
             1327.60,3243.18 1395.57,3282.19 1462.00,3312.69
             1462.00,3312.69 1520.00,3338.00 1520.00,3338.00
             1520.00,3338.00 1556.98,3352.71 1556.98,3352.71
             1562.56,3355.64 1561.69,3358.57 1562.42,3364.00
             1562.42,3364.00 1565.28,3389.00 1565.28,3389.00
             1565.28,3389.00 1578.16,3500.00 1578.16,3500.00
             1578.16,3500.00 1589.84,3600.00 1589.84,3600.00
             1589.84,3600.00 1603.72,3720.00 1603.72,3720.00
             1603.72,3720.00 1609.00,3765.00 1609.00,3765.00
             1609.00,3765.00 1609.00,3775.00 1609.00,3775.00
             1611.04,3794.62 1613.42,3811.54 1621.01,3830.00
             1639.49,3874.92 1672.15,3906.47 1718.00,3922.69
             1731.65,3927.52 1750.52,3931.83 1765.00,3932.00
             1765.00,3932.00 1966.00,3932.00 1966.00,3932.00
             1966.00,3932.00 2328.00,3932.00 2328.00,3932.00
             2335.85,3931.99 2344.25,3930.72 2352.00,3929.41
             2405.76,3920.37 2452.07,3883.29 2472.99,3833.00
             2480.93,3813.90 2483.89,3798.43 2486.00,3778.00
             2486.00,3778.00 2486.00,3767.00 2486.00,3767.00
             2486.00,3767.00 2493.16,3706.00 2493.16,3706.00
             2493.16,3706.00 2519.84,3477.00 2519.84,3477.00
             2519.84,3477.00 2529.85,3390.00 2529.85,3390.00
             2529.85,3390.00 2532.58,3366.00 2532.58,3366.00
             2533.02,3362.76 2533.01,3358.88 2534.85,3356.11
             2537.26,3352.50 2542.16,3351.19 2546.00,3349.58
             2546.00,3349.58 2571.00,3339.60 2571.00,3339.60
             2601.09,3327.55 2631.01,3314.25 2660.00,3299.75
             2660.00,3299.75 2724.00,3266.69 2724.00,3266.69
             2724.00,3266.69 2756.00,3248.01 2756.00,3248.01
             2784.95,3231.01 2813.35,3213.03 2841.00,3193.98
             2841.00,3193.98 2902.00,3149.35 2902.00,3149.35
             2902.00,3149.35 2933.00,3125.04 2933.00,3125.04
             2937.51,3122.37 2940.64,3124.34 2945.00,3126.30
             2945.00,3126.30 2965.00,3135.00 2965.00,3135.00
             2965.00,3135.00 3024.00,3160.58 3024.00,3160.58
             3024.00,3160.58 3057.00,3174.77 3057.00,3174.77
             3057.00,3174.77 3158.00,3218.42 3158.00,3218.42
             3158.00,3218.42 3271.00,3267.42 3271.00,3267.42
             3271.00,3267.42 3317.00,3287.31 3317.00,3287.31
             3332.05,3294.22 3341.42,3299.89 3358.00,3304.57
             3376.63,3309.83 3390.97,3310.22 3410.00,3310.00
             3421.43,3309.86 3439.08,3305.97 3450.00,3302.33
             3490.38,3288.88 3520.36,3265.04 3541.72,3228.00
             3541.72,3228.00 3756.42,2856.00 3756.42,2856.00
             3756.42,2856.00 3798.01,2784.00 3798.01,2784.00
             3817.79,2750.33 3834.36,2725.11 3838.07,2685.00
             3838.07,2685.00 3839.00,2675.00 3839.00,2675.00
             3839.50,2632.33 3822.90,2585.26 3791.91,2555.17
             3780.41,2544.00 3769.84,2537.69 3757.00,2528.80
             3757.00,2528.80 3719.00,2500.63 3719.00,2500.63
             3719.00,2500.63 3506.00,2342.37 3506.00,2342.37
             3506.00,2342.37 3449.00,2300.13 3449.00,2300.13
             3444.52,2296.77 3426.83,2284.32 3424.51,2280.96
             3421.76,2276.69 3423.69,2268.90 3424.51,2264.00
             3424.51,2264.00 3429.73,2226.00 3429.73,2226.00
             3429.73,2226.00 3437.09,2153.00 3437.09,2153.00
             3437.09,2153.00 3439.00,2123.00 3439.00,2123.00
             3439.00,2123.00 3440.04,2109.00 3440.04,2109.00
             3440.04,2109.00 3440.04,2094.00 3440.04,2094.00
             3440.04,2094.00 3441.00,2082.00 3441.00,2082.00
             3441.00,2082.00 3441.00,2013.00 3441.00,2013.00
             3441.00,2013.00 3440.00,1997.00 3440.00,1997.00
             3440.00,1997.00 3439.00,1970.00 3439.00,1970.00
             3439.00,1970.00 3438.00,1956.00 3438.00,1956.00
             3437.74,1933.69 3430.88,1879.03 3427.72,1855.00
             3427.72,1855.00 3423.95,1829.00 3423.95,1829.00
             3423.36,1825.29 3422.17,1819.51 3423.95,1816.09
             3425.47,1813.43 3429.53,1810.94 3432.00,1809.12
             3432.00,1809.12 3450.00,1795.63 3450.00,1795.63
             3450.00,1795.63 3514.00,1748.13 3514.00,1748.13
             3514.00,1748.13 3713.00,1600.37 3713.00,1600.37
             3713.00,1600.37 3756.00,1568.43 3756.00,1568.43
             3767.17,1560.45 3777.78,1554.73 3788.00,1544.96
             3814.31,1519.80 3831.14,1487.89 3837.08,1452.00
             3838.10,1445.85 3838.99,1440.26 3839.00,1434.00
             3839.00,1434.00 3839.00,1417.00 3839.00,1417.00
             3838.77,1397.90 3831.04,1372.14 3822.74,1355.00
             3822.74,1355.00 3806.42,1326.00 3806.42,1326.00
             3806.42,1326.00 3780.42,1281.00 3780.42,1281.00
             3780.42,1281.00 3633.85,1027.00 3633.85,1027.00
             3633.85,1027.00 3571.42,919.00 3571.42,919.00
             3555.43,891.45 3539.02,858.32 3517.83,835.00
             3493.00,807.67 3445.08,786.44 3408.00,786.00
             3390.99,785.80 3376.59,786.73 3360.00,791.15
             3351.19,793.50 3338.18,798.27 3330.00,802.26
             3330.00,802.26 3319.00,808.11 3319.00,808.11
             3319.00,808.11 3267.00,830.72 3267.00,830.72
             3267.00,830.72 3032.00,932.42 3032.00,932.42
             3032.00,932.42 2966.00,961.00 2966.00,961.00
             2966.00,961.00 2938.00,972.51 2938.00,972.51
             2934.08,972.91 2930.89,970.04 2928.00,967.79
             2928.00,967.79 2911.00,954.58 2911.00,954.58
             2911.00,954.58 2839.00,901.42 2839.00,901.42
             2786.71,864.44 2729.25,831.38 2672.00,802.75
             2672.00,802.75 2645.00,789.31 2645.00,789.31
             2645.00,789.31 2577.00,759.40 2577.00,759.40
             2577.00,759.40 2551.00,749.00 2551.00,749.00
             2547.93,747.77 2540.37,744.99 2538.05,743.30
             2532.80,739.48 2533.41,735.62 2532.72,730.00
             2532.72,730.00 2530.00,707.00 2530.00,707.00
             2530.00,707.00 2525.16,666.00 2525.16,666.00
             2525.16,666.00 2518.72,609.00 2518.72,609.00
             2518.72,609.00 2503.84,480.00 2503.84,480.00
             2503.84,480.00 2493.16,389.00 2493.16,389.00
             2493.16,389.00 2486.00,320.00 2486.00,320.00
             2485.81,304.24 2480.61,281.67 2474.80,267.00
             2455.40,218.01 2415.24,181.99 2364.00,169.13
             2353.18,166.41 2339.12,164.02 2328.00,164.11
             2328.00,164.11 1949.00,164.11 1949.00,164.11
             1949.00,164.11 1824.00,164.11 1824.00,164.11
             1824.00,164.11 1759.00,164.11 1759.00,164.11 Z
           M 2025.00,1468.14
           C 2025.00,1468.14 2064.00,1468.14 2064.00,1468.14
             2064.00,1468.14 2079.00,1469.00 2079.00,1469.00
             2120.78,1469.49 2175.86,1480.24 2216.00,1492.28
             2364.79,1536.92 2492.46,1642.85 2563.74,1781.00
             2594.99,1841.55 2615.29,1907.40 2623.72,1975.00
             2627.41,2004.63 2628.05,2034.16 2628.00,2064.00
             2628.00,2064.00 2627.00,2085.00 2627.00,2085.00
             2627.00,2085.00 2626.09,2095.00 2626.09,2095.00
             2624.58,2116.54 2621.59,2137.77 2617.61,2159.00
             2581.82,2349.84 2448.18,2511.07 2269.00,2584.99
             2228.48,2601.71 2187.20,2613.05 2144.00,2620.25
             2144.00,2620.25 2094.00,2626.09 2094.00,2626.09
             2094.00,2626.09 2084.00,2627.00 2084.00,2627.00
             2084.00,2627.00 2063.00,2628.00 2063.00,2628.00
             2063.00,2628.00 2033.00,2628.00 2033.00,2628.00
             2033.00,2628.00 2012.00,2627.00 2012.00,2627.00
             2012.00,2627.00 2002.00,2626.09 2002.00,2626.09
             2002.00,2626.09 1972.00,2623.15 1972.00,2623.15
             1930.37,2618.18 1886.31,2607.21 1847.00,2592.68
             1790.99,2571.98 1737.96,2542.75 1691.00,2505.79
             1624.41,2453.38 1570.14,2388.35 1531.26,2313.00
             1451.58,2158.57 1447.30,1969.49 1517.86,1811.00
             1584.81,1660.63 1716.79,1542.89 1874.00,1494.02
             1906.89,1483.80 1940.83,1476.54 1975.00,1472.28
             1975.00,1472.28 2013.00,1469.00 2013.00,1469.00
             2018.58,1468.99 2019.36,1469.10 2025.00,1468.14 Z" />
</svg>
